<svg data-v-0dd9719b="" version="1.0" xmlns="http://www.w3.org/2000/svg" xmlns:xlink="http://www.w3.org/1999/xlink" width="100%" height="100%" viewBox="0 0 340.000000 250.000000" preserveAspectRatio="xMidYMid meet" color-interpolation-filters="sRGB" style="margin: auto;"> <rect data-v-0dd9719b="" x="0" y="0" width="100%" height="100%" fill="#fff" fill-opacity="1" class="background"></rect> <rect data-v-0dd9719b="" x="0" y="0" width="100%" height="100%" fill="url(#watermark)" fill-opacity="1" class="watermarklayer"></rect> <g data-v-0dd9719b="" fill="#333" class="icon-text-wrapper icon-svg-group iconsvg" transform="translate(48.43000030517578,94.99069595336914)"><g class="iconsvg-imagesvg" transform="translate(0,0)"><g><rect fill="#333" fill-opacity="0" stroke-width="2" x="0" y="0" width="60" height="60.01860576778802" class="image-rect"></rect> <svg x="0" y="0" width="60" height="60.01860576778802" filtersec="colorsb2753660048" class="image-svg-svg primary" style="overflow: visible;"><svg xmlns="http://www.w3.org/2000/svg" viewBox="-0.0004231940256431699 -0.00042338765342719853 96.32041931152344 96.35041809082031"><path d="M46.51 80.55a32.43 32.43 0 0 1 0-64.78V0h-.38a1.79 1.79 0 0 0-1.77 1.53l-.26 1.82a4.71 4.71 0 0 1-3.75 3.94 41.1 41.1 0 0 0-5.86 1.57 4.7 4.7 0 0 1-5.22-1.54l-1.13-1.44a1.78 1.78 0 0 0-2.3-.44l-3.52 2a1.78 1.78 0 0 0-.76 2.21l.68 1.71A4.67 4.67 0 0 1 21 16.67 43.43 43.43 0 0 0 16.67 21a4.67 4.67 0 0 1-5.28 1.28l-1.71-.68a1.78 1.78 0 0 0-2.21.76l-2 3.52a1.78 1.78 0 0 0 .44 2.3l1.44 1.13a4.7 4.7 0 0 1 1.54 5.22 41.1 41.1 0 0 0-1.57 5.86 4.71 4.71 0 0 1-3.97 3.71l-1.82.26A1.79 1.79 0 0 0 0 46.13v4.06A1.79 1.79 0 0 0 1.53 52l1.82.26A4.69 4.69 0 0 1 7.29 56a41.45 41.45 0 0 0 1.57 5.86 4.7 4.7 0 0 1-1.54 5.22l-1.44 1.1a1.78 1.78 0 0 0-.44 2.3l2 3.51a1.77 1.77 0 0 0 2.21.77l1.71-.68a4.68 4.68 0 0 1 5.28 1.27 42.48 42.48 0 0 0 4.36 4.3 4.67 4.67 0 0 1 1.28 5.28l-.68 1.71a1.78 1.78 0 0 0 .76 2.21l3.52 2a1.78 1.78 0 0 0 2.3-.44L29.27 89a4.7 4.7 0 0 1 5.22-1.54A41.1 41.1 0 0 0 40.35 89a4.69 4.69 0 0 1 3.75 4l.26 1.81a1.8 1.8 0 0 0 1.77 1.54h.38z" fill="#0087ff"></path><path d="M94.78 44.36L93 44.1a4.69 4.69 0 0 1-4-3.75 41.1 41.1 0 0 0-1.57-5.86A4.69 4.69 0 0 1 89 29.27l1.44-1.13a1.79 1.79 0 0 0 .44-2.3l-2-3.52a1.78 1.78 0 0 0-2.21-.76l-1.71.68A4.68 4.68 0 0 1 79.65 21a42.48 42.48 0 0 0-4.3-4.29 4.68 4.68 0 0 1-1.27-5.28l.68-1.71A1.78 1.78 0 0 0 74 7.47l-3.52-2a1.78 1.78 0 0 0-2.3.44l-1.13 1.41a4.7 4.7 0 0 1-5.22 1.54A41.45 41.45 0 0 0 56 7.29a4.69 4.69 0 0 1-3.75-3.94L52 1.53A1.79 1.79 0 0 0 50.19 0h-.38v15.77a32.43 32.43 0 0 1 0 64.78v15.77h.38A1.8 1.8 0 0 0 52 94.78l.22-1.78A4.66 4.66 0 0 1 56 89a41.45 41.45 0 0 0 5.86-1.57A4.69 4.69 0 0 1 67.05 89l1.13 1.44a1.79 1.79 0 0 0 2.3.44l3.52-2a1.78 1.78 0 0 0 .76-2.21l-.68-1.71a4.68 4.68 0 0 1 1.27-5.28 41.56 41.56 0 0 0 4.3-4.3 4.68 4.68 0 0 1 5.28-1.27l1.71.68a1.78 1.78 0 0 0 2.21-.79l2-3.51a1.78 1.78 0 0 0-.44-2.3L89 67.05a4.7 4.7 0 0 1-1.54-5.22A41.45 41.45 0 0 0 89 56a4.66 4.66 0 0 1 4-3.78l1.78-.22a1.8 1.8 0 0 0 1.54-1.77v-4.1a1.8 1.8 0 0 0-1.54-1.77z" fill="#ff006f"></path><path d="M49.81 21.19v13.93h8a3.06 3.06 0 1 1 0 1.83h-8v10.3h12.68a3.05 3.05 0 1 1 0 1.82H49.81v10.3h8a3.06 3.06 0 1 1 0 1.82h-8v13.94a27 27 0 0 0 0-53.94zM21.13 48.16a27 27 0 0 0 25.38 27V21.19a27 27 0 0 0-25.38 26.97zm22.18-13h-4.85a3.06 3.06 0 1 0 0 1.83h4.85v10.3h-9.49a3.05 3.05 0 1 0 0 1.82h9.49v10.3h-4.85a3.06 3.06 0 1 0 0 1.83h4.85v10.24a23.82 23.82 0 0 1 0-46.64z" fill="#2a3294"></path></svg></svg> <!----></g></g> <g transform="translate(67,12.854305267333984)"><g data-gra="path-name" fill-rule="" class="tp-name iconsvg-namesvg"><g transform="scale(1)"><g><path d="M41.99-32.72L41.99-31.12 37.6-30.63Q37.46-26.28 37.46-17.49L37.46-17.49 37.46-15.23Q37.46-6.44 37.6-2.09L37.6-2.09 41.99-1.6 41.99 0 28.14 0 28.14-1.6 32.32-2.09Q32.36-4.53 32.38-8.99 32.4-13.45 32.4-14.83L32.4-14.83 32.49-28.36 21.57 0 19.49 0 8.12-28.32Q8.17-26.5 8.23-23.82 8.3-21.13 8.35-19.31 8.39-17.49 8.39-17.13L8.39-17.13 8.39-2.22 12.78-1.6 12.78 0 1.6 0 1.6-1.6 6.17-2.22 6.26-30.54 1.73-31.12 1.73-32.72 11.41-32.72 21.97-6.53 32.09-32.72 41.99-32.72ZM56.73-19.58L56.73-19.58 58.73-18.69Q63.65-16.69 65.7-14.4 67.74-12.12 67.74-8.61L67.74-8.61Q67.74-4.31 64.52-1.75 61.3 0.8 55.89 0.8 50.47 0.8 46.25-1.82L46.25-1.82 46.52-8.88 48.96-8.88 50.47-2.4Q52.65-1.29 55.49-1.29L55.49-1.29Q58.99-1.29 61.04-2.86 63.08-4.44 63.08-7.28L63.08-7.28Q63.08-9.59 61.75-10.99 60.41-12.38 57.22-13.63L57.22-13.63 55.31-14.47Q51.09-16.25 48.94-18.6 46.79-20.95 46.79-24.46L46.79-24.46Q46.79-28.68 49.89-31.09 53-33.51 57.93-33.51L57.93-33.51Q62.5-33.51 66.1-30.94L66.1-30.94 65.83-24.37 63.34-24.37 61.83-30.58Q60.28-31.43 58.11-31.43L58.11-31.43Q55.04-31.43 53.22-29.99 51.4-28.54 51.4-25.83L51.4-25.83Q51.4-23.57 52.73-22.11 54.07-20.64 56.73-19.58ZM98.59-30.9L98.59-30.9 95.75-30.9Q95.7-26.5 95.7-17.49L95.7-17.49 95.7-14.96 98.37-14.96Q102.67-14.96 104.72-17.11 106.76-19.27 106.76-23.04L106.76-23.04Q106.76-30.9 98.59-30.9ZM98.06-13.09L98.06-13.09 95.7-13.09Q95.7-5.9 95.75-2.09L95.75-2.09 100.5-1.6 100.5 0 86.07 0 86.07-1.6 90.47-2.09Q90.55-6.39 90.55-15.23L90.55-15.23 90.55-17.49Q90.55-26.28 90.47-30.63L90.47-30.63 86.07-31.12 86.07-32.72 99.17-32.72Q105.51-32.72 108.69-30.16 111.86-27.61 111.86-23.04L111.86-23.04Q111.86-18.6 108.49-15.85 105.11-13.09 98.06-13.09ZM124.78-17.09L124.78-17.09 128.46-17.09Q132.15-17.09 134.08-19.07 136.01-21.04 136.01-24.24L136.01-24.24Q136.01-30.9 128.69-30.9L128.69-30.9 124.82-30.9Q124.78-26.55 124.78-17.09ZM138.85-9.54L140.94-1.95 144.8-1.6 144.8 0Q143.16 0.53 140.76 0.53L140.76 0.53Q138.23 0.53 137.01-0.24 135.79-1.02 135.39-2.93L135.39-2.93 133.52-10.34Q132.86-13.23 131.55-14.27 130.24-15.31 127.27-15.31L127.27-15.31 124.78-15.31Q124.78-6.39 124.82-2.09L124.82-2.09 129.31-1.6 129.31 0 115.19 0 115.19-1.6 119.59-2.09Q119.67-6.39 119.67-15.23L119.67-15.23 119.67-17.49Q119.67-26.28 119.59-30.63L119.59-30.63 115.19-31.12 115.19-32.72 129.4-32.72Q134.99-32.72 138.05-30.47 141.11-28.23 141.11-24.24L141.11-24.24Q141.11-21.22 138.94-18.98 136.76-16.73 132.46-16.02L132.46-16.02Q135.26-15.54 136.68-14.05 138.1-12.56 138.85-9.54L138.85-9.54ZM153.37-16.34L153.37-16.34Q153.37-9.85 155.76-5.53 158.16-1.2 162.73-1.2 167.3-1.2 169.7-5.53 172.1-9.85 172.1-16.34L172.1-16.34Q172.1-20.51 171.12-23.88 170.15-27.26 167.99-29.41 165.84-31.56 162.73-31.56 159.63-31.56 157.47-29.41 155.32-27.26 154.34-23.88 153.37-20.51 153.37-16.34ZM162.73-33.51L162.73-33.51Q168.95-33.51 173.34-28.92 177.74-24.33 177.74-16.34L177.74-16.34Q177.74-8.52 173.32-3.86 168.9 0.8 162.73 0.8L162.73 0.8Q156.47 0.8 152.08-3.8 147.68-8.39 147.68-16.34L147.68-16.34Q147.68-24.15 152.12-28.83 156.56-33.51 162.73-33.51Z" transform="translate(-1.600000023841858, 33.5099983215332)"></path></g> <!----> <!----> <!----> <!----> <!----> <!----> <!----></g></g> <!----></g></g><defs v-gra="od"></defs></svg>